<svg version="1.1" width="16px" class="fixed-header__link-icon" xmlns="http://www.w3.org/2000/svg" xmlns:xlink="http://www.w3.org/1999/xlink" x="0px" y="0px" viewBox="0 0 16 16" xml:space="preserve">
<g id="Symbols">
<g id="docs-icon-_x2F_-search-16-black">
<g id="Group-3">
<path id="Fill-1" class="st0" d="M2,6.5C2,4,4,2,6.5,2S11,4,11,6.5S9,11,6.5,11S2,9,2,6.5 M15.7,14.3l-4-4
                                    C12.5,9.3,13,7.9,13,6.5C13,2.9,10.1,0,6.5,0S0,2.9,0,6.5S2.9,13,6.5,13c1.4,0,2.8-0.5,3.8-1.3l4,4c0.2,0.2,0.5,0.3,0.7,0.3
                                    s0.5-0.1,0.7-0.3C16.1,15.3,16.1,14.7,15.7,14.3"></path>
</g>
</g>
</g>
</svg>