<svg version="1.1" width="16px" class="fixed-header__link-icon" xmlns="http://www.w3.org/2000/svg" xmlns:xlink="http://www.w3.org/1999/xlink" x="0px" y="0px" viewBox="0 0 16 16" xml:space="preserve">
<path class="st0" d="M13.7,2.3c-3.1-3.1-8.2-3.1-11.3,0c-3.1,3.1-3.1,8.2,0,11.3C3.9,15.2,6,16,8,16s4.1-0.8,5.7-2.3
                            C16.8,10.5,16.8,5.5,13.7,2.3z M12.9,11.5L11.4,10C11.8,9.4,12,8.7,12,8c0-0.7-0.2-1.4-0.6-2l1.4-1.4C14.3,6.6,14.3,9.4,12.9,11.5z
                             M6,8c0-0.5,0.2-1,0.6-1.4S7.5,6,8,6s1,0.2,1.4,0.6S10,7.5,10,8S9.8,9,9.4,9.4c-0.8,0.8-2.1,0.8-2.8,0C6.2,9,6,8.5,6,8z M11.5,3.1
                            L10,4.6C9.4,4.2,8.7,4,8,4C7.3,4,6.6,4.2,6,4.6L4.5,3.1C5.6,2.4,6.8,2,8,2C9.2,2,10.4,2.4,11.5,3.1z M3.8,3.8L3.8,3.8
                            C3.8,3.8,3.8,3.8,3.8,3.8C3.8,3.8,3.8,3.8,3.8,3.8z M3.1,4.5L4.6,6C4.2,6.6,4,7.3,4,8c0,0.7,0.2,1.4,0.6,2l-1.4,1.4
                            C1.7,9.4,1.7,6.6,3.1,4.5z M4.5,12.9L6,11.4C6.6,11.8,7.3,12,8,12s1.4-0.2,2-0.6l1.4,1.4C9.4,14.3,6.6,14.3,4.5,12.9z"></path>
</svg>